<?xml version="1.0" encoding="UTF-8" standalone="no"?>
<!-- Created with Inkscape (http://www.inkscape.org/) -->

<svg
   xmlns:dc="http://purl.org/dc/elements/1.1/"
   xmlns:cc="http://creativecommons.org/ns#"
   xmlns:rdf="http://www.w3.org/1999/02/22-rdf-syntax-ns#"
   xmlns:svg="http://www.w3.org/2000/svg"
   xmlns="http://www.w3.org/2000/svg"
   xmlns:sodipodi="http://sodipodi.sourceforge.net/DTD/sodipodi-0.dtd"
   xmlns:inkscape="http://www.inkscape.org/namespaces/inkscape"
   id="svg2"
   version="1.1"
   inkscape:version="0.48.4 r9939"
   width="300"
   height="105"
   sodipodi:docname="logofestivalpetit.svg">
  <metadata
     id="metadata8">
    <rdf:RDF>
      <cc:Work
         rdf:about="">
        <dc:format>image/svg+xml</dc:format>
        <dc:type
           rdf:resource="http://purl.org/dc/dcmitype/StillImage" />
        <dc:title></dc:title>
      </cc:Work>
    </rdf:RDF>
  </metadata>
  <defs
     id="defs6" />
  <sodipodi:namedview
     pagecolor="#ffffff"
     bordercolor="#666666"
     borderopacity="1"
     objecttolerance="10"
     gridtolerance="10"
     guidetolerance="10"
     inkscape:pageopacity="0"
     inkscape:pageshadow="2"
     inkscape:window-width="1551"
     inkscape:window-height="800"
     id="namedview4"
     showgrid="false"
     showguides="false"
     inkscape:guide-bbox="true"
     inkscape:zoom="2.6168258"
     inkscape:cx="107.24502"
     inkscape:cy="51.872082"
     inkscape:window-x="10"
     inkscape:window-y="34"
     inkscape:window-maximized="0"
     inkscape:current-layer="layer2"
     inkscape:snap-midpoints="false"
     inkscape:snap-global="false"
     fit-margin-top="0"
     fit-margin-left="0"
     fit-margin-right="0"
     fit-margin-bottom="0">
    <sodipodi:guide
       orientation="0,1"
       position="234.4415,114.09088"
       id="guide2989" />
    <sodipodi:guide
       orientation="1,0"
       position="238.69332,166.7072"
       id="guide2993" />
    <sodipodi:guide
       orientation="1,0"
       position="166.41232,181.58859"
       id="guide2995" />
    <sodipodi:guide
       orientation="0,1"
       position="61.179682,133.22409"
       id="guide2997" />
    <sodipodi:guide
       orientation="0,1"
       position="96.788702,7.263808"
       id="guide2999" />
    <sodipodi:guide
       orientation="1,0"
       position="7.5004016,93.363241"
       id="guide3001" />
    <sodipodi:guide
       orientation="1,0"
       position="134.52364,86.985511"
       id="guide3003" />
    <sodipodi:guide
       orientation="0,1"
       position="89.348012,25.33406"
       id="guide3007" />
    <sodipodi:guide
       orientation="1,0"
       position="25.039172,84.328121"
       id="guide3009" />
    <sodipodi:guide
       orientation="1,0"
       position="115.92191,88.579941"
       id="guide3011" />
    <sodipodi:guide
       orientation="0,1"
       position="193.51769,243.24003"
       id="guide3013" />
    <sodipodi:guide
       orientation="1,0"
       position="109.54417,192.21815"
       id="guide3015" />
    <sodipodi:guide
       orientation="1,0"
       position="217.4342,177.86824"
       id="guide3017" />
    <sodipodi:guide
       orientation="0,1"
       position="355.087,204.97362"
       id="guide3019" />
    <sodipodi:guide
       orientation="0,1"
       position="385.91273,151.29434"
       id="guide3021" />
    <sodipodi:guide
       orientation="0,1"
       position="331.96771,128.8394"
       id="guide3023" />
    <sodipodi:guide
       orientation="0,1"
       position="344.72318,101.06967"
       id="guide3025" />
    <sodipodi:guide
       orientation="0,1"
       position="358.01013,88.048461"
       id="guide3027" />
    <sodipodi:guide
       orientation="0,1"
       position="344.72318,28.257189"
       id="guide3029" />
    <sodipodi:guide
       orientation="0,1"
       position="346.05188,-11.337922"
       id="guide3031" />
  </sodipodi:namedview>
  <g
     inkscape:groupmode="layer"
     id="layer1"
     inkscape:label="1"
     style="display:inline"
     transform="translate(-140.78196,-155.87148)">
    <rect
       style="fill:#ffffff;fill-opacity:1;stroke:#ffffff;stroke-width:1.80926859000000007;stroke-miterlimit:4;stroke-opacity:1;stroke-dasharray:none"
       id="rect3861"
       width="294.03995"
       height="101.8101"
       x="144.32526"
       y="157.07587" />
  </g>
  <g
     inkscape:groupmode="layer"
     id="layer2"
     inkscape:label="2"
     transform="translate(-140.78196,-155.87148)">
    <g
       id="g3819"
       style="opacity:0.2">
      <g
         transform="translate(1.9107118,0.38214245)"
         id="g3816">
        <path
           style="fill:#000000;fill-opacity:1;stroke:#000000;stroke-width:0.33600000000000002;stroke-linecap:butt;stroke-linejoin:miter;stroke-miterlimit:4;stroke-opacity:1;stroke-dasharray:none;display:inline"
           d="m 138.67849,154.51205 0,108.05184 303.86544,0 0,-108.05184 -303.86544,0 z m 99.94485,5.14175 c 13.25931,0 24.01174,11.30516 24.01174,25.24613 0,13.94096 -10.75243,25.23542 -24.01174,25.23542 -13.25934,0 -24.01173,-11.29446 -24.01173,-25.23542 0,-13.94097 10.75239,-25.24613 24.01173,-25.24613 z m -0.009,6.03458 c -9.94605,0 -18.00627,8.47458 -18.00627,18.93187 0,10.45739 8.06022,18.93196 18.00627,18.93196 9.94599,0 18.00618,-8.47457 18.00618,-18.93196 0,-10.45729 -8.06019,-18.93187 -18.00618,-18.93187 z m -7.1616,5.15245 14.3538,0 0,5.03416 -9.04401,0 0,6.67996 8.4404,0 0,4.65767 -8.17439,0 0,10.25124 -5.5758,0 0,-26.62303 z m 33.97651,8.42254 10.26155,0 0,3.45294 -6.37383,0 0,4.00153 5.84182,0 0,3.20549 -6.01574,0 0,4.84064 6.49656,0 0,2.9688 -10.21036,0 0,-18.4694 z m 18.96793,0 c 3.80399,0 5.0438,1.4522 5.0438,1.4522 l -1.23792,2.88281 c -3.06877,-1.99821 -6.05177,-1.22945 -6.18963,0.65617 -0.0884,3.58101 8.17308,2.55224 7.69354,8.69148 -0.42866,5.48864 -7.02862,6.703 -11.54032,4.23816 l 0.0411,-3.81865 c 2.03467,1.34871 6.59768,2.5553 7.57081,0.46253 0.97312,-2.09277 -1.50998,-3.20266 -2.65999,-3.52821 -1.15006,-0.32553 -5.17263,-2.09165 -4.81875,-5.76558 0.31723,-3.29335 2.29358,-5.27091 6.09756,-5.27091 z m 22.61011,0 3.80584,0 0,18.4694 -3.80584,0 0,-18.4694 z m 9.63744,0 4.24581,14.75834 4.20484,-14.75834 3.67287,0 -5.84182,18.4694 -4.07183,0 -5.92367,-18.36179 3.7138,-0.10792 z m 18.40524,0 4.5118,0 6.3226,18.4694 -4.28669,0 -1.06397,-4.18438 -6.32267,-0.0857 -1.28911,4.27041 -4.02068,0 6.14872,-18.46944 z m 12.87038,0 3.62174,0 0,15.40372 7.34566,0 0,3.06568 -10.92646,0 -0.0408,-18.4694 z m -56.90375,0.19358 13.24885,0 0,3.2593 -4.7369,0 0,15.01649 -3.67287,0 0,-14.97342 -4.83908,0 0,-3.30237 z m 46.20229,3.2593 -2.08707,7.44371 4.29694,0.0857 -2.20987,-7.52971 z m -74.89981,19.25465 c 0.65578,0 1.18681,0.55831 1.18681,1.2478 0,0.68946 -0.53103,1.24775 -1.18681,1.24775 -0.65574,0 -1.1868,-0.55829 -1.1868,-1.24775 0,-0.68949 0.53106,-1.2478 1.1868,-1.2478 z m 67.99405,0.10761 c 0.65571,0 1.18674,0.55832 1.18674,1.24775 0,0.68949 -0.53103,1.2478 -1.18674,1.2478 -0.6558,0 -1.19701,-0.55831 -1.19701,-1.2478 0,-0.68943 0.54121,-1.24775 1.19701,-1.24775 z m 34.22207,0.0753 2.93624,0 0,12.87584 -2.93624,0 0,-12.87584 z m -155.97903,1.80715 c 11.38744,0 20.61507,9.70205 20.61507,21.67487 0,11.97292 -9.22763,21.67493 -20.61507,21.67493 -11.38744,0 -20.62532,-9.70201 -20.62532,-21.67493 0,-11.97282 9.23788,-21.67487 20.62532,-21.67487 z m 69.40583,0 1.70853,0 0,1.50599 2.30199,0 0,2.22663 -2.34287,0 0,4.78675 c 0,0.51151 0.54678,0.81753 1.0333,0.81753 0.48658,0 1.31871,-0.23688 1.60622,-0.37644 l 0,1.73176 c -0.46441,0.37208 -1.20768,0.66349 -2.15865,0.70995 -1.4597,-0.0466 -2.82737,-0.33202 -2.91581,-2.08683 l -0.0921,-5.80862 -1.10492,0 0.0213,-0.8713 c 1.77911,-0.66788 1.74481,-1.57699 1.94385,-2.63542 z m 44.87239,0.11859 1.69829,0 0,1.51672 2.30193,0 0,2.21593 -2.34284,0 0,4.79751 c 0,0.51154 0.557,0.80676 1.04358,0.80676 0.48652,0 1.30847,-0.2262 1.59595,-0.36573 l 0,1.73182 c -0.46445,0.37205 -1.19748,0.66346 -2.14844,0.70998 -1.45968,-0.0466 -2.83759,-0.34278 -2.92603,-2.09762 l -0.0817,-5.79786 -1.10495,0 0.0213,-0.87133 c 1.77904,-0.66782 1.74478,-1.58769 1.94385,-2.64618 z m -61.70211,1.38767 2.52704,0 0,9.5627 -2.52704,0 0,-9.5627 z m 9.97508,0 c 1.45968,0 3.10193,1.26723 3.21247,2.73221 l -0.0512,6.83049 -2.34285,0 0,-5.75478 c -0.0442,-0.96993 -0.30632,-1.67808 -1.54482,-1.67808 -1.23851,0 -1.90461,1.20921 -1.88248,1.5812 l -0.0613,5.85166 -2.43494,0 0.0412,-9.26153 1.79041,0.0244 c 0.0665,0.33455 0.22438,0.9292 0.51152,1.16171 0.77412,-0.86039 1.30268,-1.48446 2.76232,-1.48446 z m 16.48184,0 c 3.14053,0 4.22005,2.50594 4.15371,5.30308 l -5.74972,0 c -0.11096,1.30219 0.79973,2.65864 2.28148,2.63541 1.10583,0 2.00707,-0.30241 2.80323,-0.72074 l 0.0716,2.0761 c -0.66345,0.26675 -0.92633,0.62218 -2.62931,0.64535 -2.03463,0.0244 -5.13748,-1.12495 -5.11538,-4.86202 0.0665,-3.06269 1.81797,-5.07718 4.18438,-5.07718 z m 11.76546,0 0.0213,2.45253 c -1.95836,-0.0314 -2.94542,0.62816 -3.23296,1.72112 -0.006,-0.009 -0.0213,5.38905 -0.0213,5.38905 l -2.38375,0 0,-9.44438 1.85181,0 0.24541,1.9254 c 1.05269,-1.82315 2.27083,-2.05908 3.51943,-2.04372 z m 7.10017,0 c 1.01739,0 2.90481,1.11391 2.9874,2.57085 l 0,6.99185 -2.48607,0 0,-6.05598 c 0,-1.02318 -0.88783,-1.41992 -1.41181,-1.41992 -0.30525,0 -1.90333,0.25059 -1.92346,1.38761 l 0,6.08829 -2.38375,0 0.009,-9.36911 1.85178,0.0646 c 0,0 0.20608,0.8417 0.25547,1.12948 0.81616,-1.02766 1.87931,-1.38764 3.09998,-1.38764 z m 31.27564,0 c 2.91381,-0.0695 4.46268,2.37693 4.50155,5.07718 -0.0936,2.63048 -1.85961,4.6452 -4.49134,4.66843 -2.52115,0.0695 -4.52576,-1.86888 -4.54249,-4.66843 0.0939,-2.96233 1.83956,-5.07718 4.53228,-5.07718 z m 20.75832,0 c 1.30481,0 3.74378,1.04843 3.75469,3.39911 l 0.0308,6.24971 -1.90297,0 -0.58316,-1.25856 c -0.70766,0.6976 -1.51583,1.30161 -2.99758,1.30161 -1.4818,0 -2.74558,-0.72013 -2.75211,-2.60316 0.0558,-2.63941 1.75905,-3.1055 2.81348,-3.35612 0.80424,-0.23382 2.42314,-0.11432 2.72141,-0.1509 0.0152,-0.79266 -0.12346,-1.86989 -1.42212,-1.89318 -0.79835,-0.0244 -1.36239,0.23412 -2.33256,0.77448 l -0.73666,-1.55967 c 1.36515,-0.8871 2.10204,-0.90362 3.40688,-0.90362 z m -29.37267,0.10762 2.52697,0 0,9.55199 -2.52697,0 0,-9.55199 z m -13.39214,0.0244 c 1.30487,0 3.74377,1.05922 3.75469,3.40989 l 0.0213,6.24975 -1.90297,0 -0.58313,-1.25854 c -0.70772,0.69751 -1.51586,1.30152 -2.99764,1.30152 -1.48178,0 -2.73534,-0.73086 -2.74183,-2.61392 0.0558,-2.63934 1.75898,-3.09474 2.81344,-3.3453 0.80424,-0.23382 2.42315,-0.12529 2.72145,-0.16157 0.0152,-0.79274 -0.12347,-1.86992 -1.42215,-1.89318 -0.79836,-0.0244 -1.3624,0.23413 -2.33257,0.77451 l -0.73665,-1.55976 c 1.36523,-0.887 2.102,-0.90356 3.40684,-0.90356 z m 33.5366,0.0646 c 1.0173,0 2.90475,1.12464 2.98743,2.58166 l 0,6.98109 -2.47588,0 0,-6.05604 c 0,-1.02312 -0.88783,-1.41989 -1.41188,-1.41989 -0.30494,0 -1.9033,0.26096 -1.92342,1.39843 l 0,6.0775 -2.39397,0 0.0213,-9.35835 1.84154,0.054 c 0,0 0.21675,0.84171 0.26614,1.12946 0.81616,-1.02761 1.86913,-1.38761 3.0898,-1.38761 z m -61.55883,1.61353 c -0.88462,0.0466 -1.75279,0.69303 -1.70856,1.92544 l 3.44779,-0.0244 c -0.0884,-0.88359 -0.65553,-1.85739 -1.73923,-1.90394 z m 49.93662,0.34428 c -1.44949,-0.0326 -1.96119,1.57387 -1.91315,2.92578 -0.0625,1.67747 0.69099,2.743 2.03592,2.743 1.34493,0 1.86855,-1.39904 1.85175,-2.743 0.006,-1.20448 -0.37622,-2.94911 -1.97452,-2.92578 z m -129.45053,2.6676 c -8.12485,0 -14.71188,6.92573 -14.71188,15.46826 0,8.54256 6.58703,15.46826 14.71188,15.46826 8.12488,0 14.71188,-6.9257 14.71188,-15.46826 0,-8.54253 -6.587,-15.46826 -14.71188,-15.46826 z m 150.61809,0.0973 c -1.5476,0.0939 -2.49155,1.17275 -2.08707,2.43098 0.24328,0.41856 0.82086,0.85719 1.88245,0.1826 0.7801,-0.54282 0.96664,-1.4462 0.9003,-2.59242 -0.24358,-0.0274 -0.4746,-0.0351 -0.69568,-0.0244 z m -42.42721,0.12895 c -1.74615,-0.0533 -2.85805,1.08294 -2.42473,2.43101 0.24328,0.41863 0.8107,0.86801 1.87227,0.19358 0.78009,-0.54279 0.97688,-1.44623 0.91054,-2.59242 -0.12164,-0.0122 -0.24144,-0.0314 -0.35808,-0.0323 z m -108.17039,2.69995 c 0.21126,-6.7e-4 0.42731,0.003 0.64452,0.009 6.5824,-0.12926 10.70197,6.28492 10.45589,13.45673 -0.24632,7.17187 -3.87239,11.9617 -10.94695,11.89701 -5.78264,0 -10.28212,-4.13024 -10.2206,-9.30461 l 5.91339,0 c 0,1.9404 2.09253,4.13057 4.30721,4.13057 2.33766,-0.12925 4.42967,-2.06572 4.55271,-6.85207 0.12285,-4.78632 -1.59961,-7.69107 -4.6755,-7.69107 -1.66098,-0.0643 -3.80219,0.6465 -3.93886,3.67881 l -6.28172,0.12926 c -0.2384,-5.20071 3.62842,-9.43119 10.18991,-9.45521 z m 23.37742,6.2927 4.42994,0 0,20.58846 -4.42994,0 0,-20.58846 z m 9.28952,0 5.13589,0 8.49159,15.62962 0,-15.62962 3.48873,0 0,20.58846 -5.29957,0 -8.40976,-15.33913 0,15.33913 -3.48868,0 0.0817,-20.58846 z m 22.32369,0 10.93674,0 0,3.80792 -7.0695,0 0,4.37802 6.58868,0 0,3.625 -6.54777,0 0,5.30314 6.9467,0 0,3.47438 -10.85485,0 0,-20.58846 z m 30.53899,0 5.2586,0 0,20.58846 -3.84679,0 0,-15.94152 -4.8596,15.94152 -3.857,0 -4.68572,-16.02752 0,16.02752 -3.62174,0 0,-20.26574 5.79067,0 4.73687,15.44674 5.08471,-15.76946 z m 14.68121,0 4.9517,0 6.98765,20.58846 -4.55268,0 -1.50397,-4.68993 -6.81369,0 -1.54486,4.68993 -4.51179,0 6.98764,-20.58846 z m 21.41309,0 4.06159,0 0,17.11408 8.14381,0 0,3.47438 -12.12358,0 -0.0817,-20.58846 z m 15.34623,0 4.20487,0 0,20.58846 -4.07186,0 -0.13292,-20.58846 z m 9.02353,0 8.18469,0.0969 c 2.10585,0.0616 5.94266,1.3302 5.96461,5.38919 -0.0122,2.18758 -0.84256,3.78432 -2.91578,4.50711 1.91269,0.53645 3.18866,1.67365 3.23292,4.46408 0.0442,3.48797 -2.17264,6.08479 -5.2689,6.13131 l -9.10541,0 -0.0921,-20.58846 z m 18.39505,0 7.43783,0 c 4.03457,0.0659 6.21005,3.72198 6.23057,6.46485 -0.0421,3.006 -2.00781,4.60146 -3.92867,5.38911 l 6.01571,8.7345 -4.74706,0 -4.63453,-7.71253 -2.20989,0 0,7.71253 -4.16396,0 0,-20.58846 z m 18.00624,0 11.28461,0 0,3.7649 -7.17181,0 0,4.56085 6.77279,0 0,3.62506 -6.77279,0 0,4.98039 7.07969,0 0,3.65726 -11.32547,0 0.13323,-20.58846 z m -79.70826,3.48523 -2.38378,8.64843 4.8596,-0.13962 -2.47582,-8.5086 z m 47.51187,0.23657 0,4.55011 3.33526,0 c 1.32695,0 2.27102,-0.94231 2.41446,-2.12987 0.0183,-1.05602 -0.92926,-2.33601 -2.41446,-2.42024 l -3.33526,0 z m 18.35411,0.1826 0,5.44292 2.48609,-0.0323 c 1.71554,0.0244 2.73708,-1.53939 2.71117,-2.76451 0.006,-1.35664 -1.16003,-2.67904 -3.06925,-2.64615 l -2.12801,0 z m -18.31317,7.86319 0,5.24928 3.8877,0 c 0.59678,0.0323 2.08048,-0.69608 2.16895,-2.4633 0.0884,-1.76724 -1.46123,-2.78598 -2.16895,-2.78598 l -3.8877,0 z"
           id="path3814"
           inkscape:connector-curvature="0" />
      </g>
    </g>
  </g>
</svg>
