<?xml version="1.0" encoding="UTF-8" standalone="no"?>
<!-- Created with Inkscape (http://www.inkscape.org/) -->

<svg
   xmlns:dc="http://purl.org/dc/elements/1.1/"
   xmlns:cc="http://creativecommons.org/ns#"
   xmlns:rdf="http://www.w3.org/1999/02/22-rdf-syntax-ns#"
   xmlns:svg="http://www.w3.org/2000/svg"
   xmlns="http://www.w3.org/2000/svg"
   xmlns:sodipodi="http://sodipodi.sourceforge.net/DTD/sodipodi-0.dtd"
   xmlns:inkscape="http://www.inkscape.org/namespaces/inkscape"
   id="svg2"
   version="1.1"
   inkscape:version="0.48.4 r9939"
   width="926"
   height="320"
   sodipodi:docname="logofestivalcinemanoir.svg">
  <metadata
     id="metadata8">
    <rdf:RDF>
      <cc:Work
         rdf:about="">
        <dc:format>image/svg+xml</dc:format>
        <dc:type
           rdf:resource="http://purl.org/dc/dcmitype/StillImage" />
        <dc:title></dc:title>
      </cc:Work>
    </rdf:RDF>
  </metadata>
  <defs
     id="defs6" />
  <sodipodi:namedview
     pagecolor="#ffffff"
     bordercolor="#666666"
     borderopacity="1"
     objecttolerance="10"
     gridtolerance="10"
     guidetolerance="10"
     inkscape:pageopacity="0"
     inkscape:pageshadow="2"
     inkscape:window-width="1551"
     inkscape:window-height="800"
     id="namedview4"
     showgrid="false"
     showguides="false"
     inkscape:guide-bbox="true"
     inkscape:zoom="0.92518765"
     inkscape:cx="419.64313"
     inkscape:cy="92.643448"
     inkscape:window-x="0"
     inkscape:window-y="24"
     inkscape:window-maximized="0"
     inkscape:current-layer="layer1"
     inkscape:snap-midpoints="false"
     inkscape:snap-global="false">
    <sodipodi:guide
       orientation="0,1"
       position="375.22346,147.2194"
       id="guide2989" />
    <sodipodi:guide
       orientation="1,0"
       position="379.47528,199.83572"
       id="guide2993" />
    <sodipodi:guide
       orientation="1,0"
       position="307.19428,214.71711"
       id="guide2995" />
    <sodipodi:guide
       orientation="0,1"
       position="201.96164,166.35261"
       id="guide2997" />
    <sodipodi:guide
       orientation="0,1"
       position="237.57066,40.392327"
       id="guide2999" />
    <sodipodi:guide
       orientation="1,0"
       position="148.28236,126.49176"
       id="guide3001" />
    <sodipodi:guide
       orientation="1,0"
       position="275.3056,120.11403"
       id="guide3003" />
    <sodipodi:guide
       orientation="0,1"
       position="230.12997,58.462579"
       id="guide3007" />
    <sodipodi:guide
       orientation="1,0"
       position="165.82113,117.45664"
       id="guide3009" />
    <sodipodi:guide
       orientation="1,0"
       position="256.70387,121.70846"
       id="guide3011" />
    <sodipodi:guide
       orientation="0,1"
       position="334.29965,276.36855"
       id="guide3013" />
    <sodipodi:guide
       orientation="1,0"
       position="250.32613,225.34667"
       id="guide3015" />
    <sodipodi:guide
       orientation="1,0"
       position="358.21616,210.99676"
       id="guide3017" />
    <sodipodi:guide
       orientation="0,1"
       position="495.86896,238.10214"
       id="guide3019" />
    <sodipodi:guide
       orientation="0,1"
       position="526.69469,184.42286"
       id="guide3021" />
    <sodipodi:guide
       orientation="0,1"
       position="472.74967,161.96792"
       id="guide3023" />
    <sodipodi:guide
       orientation="0,1"
       position="485.50514,134.19819"
       id="guide3025" />
    <sodipodi:guide
       orientation="0,1"
       position="498.79209,121.17698"
       id="guide3027" />
    <sodipodi:guide
       orientation="0,1"
       position="485.50514,61.385708"
       id="guide3029" />
    <sodipodi:guide
       orientation="0,1"
       position="486.83384,21.790597"
       id="guide3031" />
  </sodipodi:namedview>
  <g
     inkscape:groupmode="layer"
     id="layer1"
     inkscape:label="1"
     style="display:inline"
     transform="translate(0,26)">
    <path
       style="fill:#000000;fill-opacity:1;stroke:#000000;stroke-width:1.01862621px;stroke-linecap:butt;stroke-linejoin:miter;stroke-opacity:1"
       d="m -10.843443,-25.833152 0,322.713502 944.743923,0 0,-322.713502 -944.743923,0 z M 300.37867,-3.7416993 c 41.25489,0 74.70987,33.4549763 74.70987,74.7098613 0,41.254888 -33.45498,74.678018 -74.70987,74.678018 -41.25488,0 -74.70986,-33.42313 -74.70986,-74.678018 0,-41.254885 33.45498,-74.7098613 74.70986,-74.7098613 z m -0.0318,17.8577903 c -30.94591,0 -56.02444,25.078511 -56.02444,56.024437 0,30.945922 25.07853,56.024432 56.02444,56.024432 30.94594,0 56.02445,-25.07851 56.02445,-56.024432 0,-30.945926 -25.07851,-56.024437 -56.02445,-56.024437 z m -22.28249,15.24756 44.66039,0 0,14.897407 -28.13955,0 0,19.767713 26.26146,0 0,13.783285 -25.43381,0 0,30.335944 -17.34849,0 0,-78.784349 z m 105.7143,24.924507 31.92756,0 0,10.218094 -19.83138,0 0,11.84153 18.17611,0 0,9.485956 -18.71726,0 0,14.324432 20.21338,0 0,8.78565 -31.76841,0 0,-54.655662 z m 59.01665,0 c 11.83568,0 15.6932,4.29733 15.6932,4.29733 l -3.85167,8.530994 c -9.54819,-5.913206 -18.82942,-3.638222 -19.2584,1.941756 -0.27526,10.597068 25.42958,7.55264 23.93771,25.720311 -1.33377,16.242251 -21.86889,19.835911 -35.90657,12.541831 l 0.12733,-11.300381 c 6.33071,3.991101 20.528,7.561861 23.55573,1.368776 3.02773,-6.193089 -4.69812,-9.477546 -8.27633,-10.440916 -3.57825,-0.963368 -16.0939,-6.18967 -14.9929,-17.061987 0.98688,-9.74568 7.1362,-15.597714 18.9719,-15.597714 z m 70.34888,0 11.84152,0 0,54.655662 -11.84152,0 0,-54.655662 z m 29.98579,0 13.21031,43.673593 13.08298,-43.673593 11.42772,0 -18.17612,54.655662 -12.66916,0 L 531.57497,54.60648 543.13,54.288158 z m 57.26589,0 14.03795,0 19.67221,54.655662 -13.33764,0 -3.31053,-12.382677 -19.67222,-0.254656 -4.01084,12.637333 -12.51,0 19.13107,-54.655662 z m 40.04474,0 11.26856,0 0,45.583515 22.85542,0 0,9.072147 -33.99665,0 -0.12733,-54.655662 z m -177.04996,0.572978 41.22253,0 0,9.645116 -14.73825,0 0,44.437568 -11.42771,0 0,-44.310238 -15.05657,0 0,-9.772446 z m 143.75361,9.645116 -6.49372,22.02779 13.36945,0.254657 -6.87573,-22.282447 z M 374.10174,121.48564 c 2.04031,0 3.69252,1.65221 3.69252,3.69252 0,2.04031 -1.65221,3.69252 -3.69252,3.69252 -2.04032,0 -3.69252,-1.65221 -3.69252,-3.69252 0,-2.04031 1.6522,-3.69252 3.69252,-3.69252 z m 211.55592,0.31833 c 2.04031,0 3.69252,1.6522 3.69252,3.69252 0,2.04031 -1.65221,3.69252 -3.69252,3.69252 -2.0403,0 -3.72436,-1.65221 -3.72436,-3.69252 0,-2.04032 1.68406,-3.69252 3.72436,-3.69252 z m 106.47827,0.22282 9.13579,0 0,38.10299 -9.13579,0 0,-38.10299 z m -485.3117,5.34779 c 35.43084,0 64.14162,28.71077 64.14162,64.14162 0,35.43083 -28.71078,64.1416 -64.14162,64.1416 -35.43085,0 -64.17346,-28.71077 -64.17346,-64.1416 0,-35.43085 28.74261,-64.14162 64.17346,-64.14162 z m 215.94873,0 5.31597,0 0,4.45648 7.16222,0 0,6.58924 -7.28956,0 0,14.16528 c 0,1.51382 1.70119,2.41923 3.21505,2.41923 1.51387,0 4.10307,-0.70124 4.99763,-1.11411 l 0,5.12496 c -1.44506,1.101 -3.75764,1.96328 -6.71657,2.10091 -4.54159,-0.13762 -8.7969,-0.98259 -9.07214,-6.17543 l -0.28648,-17.18931 -3.43786,0 0.0636,-2.57839 c 5.53543,-1.97646 5.42878,-4.66667 6.04808,-7.79886 z m 139.61546,0.35015 5.28412,0 0,4.48832 7.16221,0 0,6.55742 -7.28954,0 0,14.19709 c 0,1.51382 1.73301,2.38741 3.24686,2.38741 1.51388,0 4.07125,-0.66941 4.9658,-1.08229 l 0,5.12496 c -1.44504,1.101 -3.72579,1.96329 -6.68472,2.10091 -4.54161,-0.13761 -8.82873,-1.01439 -9.10397,-6.20725 l -0.25467,-17.15749 -3.43785,0 0.0636,-2.57839 c 5.53542,-1.97646 5.42878,-4.6985 6.0481,-7.83069 z m -191.9792,4.10633 7.86253,0 0,28.29872 -7.86253,0 0,-28.29872 z m 31.03626,0 c 4.54161,0 9.65121,3.75018 9.99528,8.08535 l -0.15917,20.21337 -7.28954,0 0,-17.03016 c -0.13762,-2.87021 -0.95317,-4.96581 -4.80664,-4.96581 -3.85348,0 -5.92585,3.57832 -5.8571,4.67933 l -0.191,17.31664 -7.57603,0 0.12732,-27.40742 5.57061,0.0636 c 0.20645,0.99012 0.69706,2.74974 1.59162,3.43787 2.40842,-2.54604 4.05306,-4.39283 8.59465,-4.39283 z m 51.28146,0 c 9.77132,0 13.13026,7.41586 12.92382,15.69322 l -17.88961,0 c -0.34408,3.85349 2.48813,7.86766 7.09854,7.79886 3.44062,0 6.24476,-0.89412 8.72199,-2.13276 l 0.22282,6.14359 c -2.06436,0.78886 -2.88231,1.84111 -8.18084,1.90993 -6.33073,0.0688 -15.98483,-3.32924 -15.91603,-14.38809 0.20643,-9.06332 5.65642,-15.02475 13.01931,-15.02475 z m 36.60688,0 0.0636,7.25772 c -6.09315,-0.0861 -9.16437,1.85897 -10.05893,5.09313 -0.0186,-0.0259 -0.0636,15.94787 -0.0636,15.94787 l -7.41687,0 0,-27.94857 5.7616,0 0.76397,5.69795 c 3.27533,-5.39525 7.06539,-6.09352 10.95023,-6.0481 z m 22.09145,0 c 3.16537,0 9.03785,3.29632 9.29497,7.60788 l 0,20.69084 -7.73519,0 0,-17.92145 c 0,-3.02774 -2.76233,-4.20184 -4.39284,-4.20184 -0.94929,0 -5.92186,0.74087 -5.98442,4.10633 l 0,18.01696 -7.41687,0 0.0317,-27.72573 5.76161,0.19098 c 0,0 0.64087,2.49075 0.79579,3.34237 2.53913,-3.04097 5.84722,-4.10634 9.64512,-4.10634 z m 97.31063,0 c 9.06615,-0.20643 13.88519,7.03407 14.00612,15.02475 -0.29195,7.78423 -5.78599,13.74631 -13.97428,13.81511 -7.84424,0.20643 -14.08132,-5.53057 -14.13345,-13.81511 0.29196,-8.76624 5.72359,-15.02475 14.10161,-15.02475 z m 64.58728,0 c 4.05991,0 11.64837,3.10259 11.68235,10.05894 l 0.0955,18.49443 -5.92076,0 -1.81442,-3.72435 c -2.202,2.06435 -4.71638,3.85168 -9.32681,3.85168 -4.61041,0 -8.54266,-2.13101 -8.56282,-7.70337 0.17443,-7.81059 5.47301,-9.18993 8.75381,-9.93159 2.50229,-0.69303 7.53938,-0.33796 8.46734,-0.44565 0.0522,-2.34592 -0.38347,-5.53365 -4.42467,-5.60245 -2.48414,-0.069 -4.23891,0.69398 -7.2577,2.29192 l -2.29191,-4.61566 c 4.24764,-2.62498 6.54017,-2.6739 10.60009,-2.6739 z m -91.38988,0.31832 7.86252,0 0,28.26688 -7.86252,0 0,-28.26688 z m -41.66817,0.0636 c 4.05992,0 11.64839,3.13441 11.68237,10.09076 l 0.0636,18.49443 -5.92077,0 -1.81442,-3.72435 c -2.202,2.06437 -4.71638,3.85169 -9.3268,3.85169 -4.61042,0 -8.51083,-2.16285 -8.53098,-7.7352 0.17441,-7.8106 5.473,-9.15811 8.75381,-9.89977 2.50227,-0.69302 7.53938,-0.3698 8.46732,-0.47747 0.0522,-2.34593 -0.38345,-5.53365 -4.42465,-5.60245 -2.48415,-0.069 -4.23891,0.69397 -7.2577,2.29191 l -2.29192,-4.61564 c 4.24763,-2.62498 6.54015,-2.67391 10.60008,-2.67391 z m 104.34551,0.191 c 3.16537,0 9.03785,3.32814 9.29497,7.63969 l 0,20.65901 -7.70336,0 0,-17.92145 c 0,-3.02773 -2.76232,-4.20182 -4.39282,-4.20182 -0.94931,0 -5.9219,0.77268 -5.98444,4.13815 l 0,17.98512 -7.4487,0 0.0636,-27.69388 5.72978,0.15915 c 0,0 0.6727,2.49073 0.82762,3.34236 2.53914,-3.04096 5.81538,-4.10633 9.61329,-4.10633 z m -191.53355,4.7748 c -2.75248,0.13762 -5.45357,2.05089 -5.31594,5.69795 l 10.72739,-0.0636 c -0.27525,-2.61485 -2.03965,-5.49665 -5.41145,-5.63428 z m 155.37232,1.01863 c -4.50988,-0.0973 -6.10203,4.65765 -5.95258,8.65833 -0.19464,4.96402 2.15003,8.11717 6.33457,8.11717 4.18455,0 5.81377,-4.14002 5.7616,-8.11717 0.0167,-3.56429 -1.17074,-8.72719 -6.14359,-8.65833 z m -402.77113,7.89436 c -25.27965,0 -45.77452,20.49487 -45.77452,45.77451 0,25.27963 20.49487,45.77451 45.77452,45.77451 25.27962,0 45.7745,-20.49488 45.7745,-45.77451 0,-25.27964 -20.49488,-45.77451 -45.7745,-45.77451 z m 468.63167,0.28648 c -4.81512,0.27814 -7.7521,3.47059 -6.49372,7.19405 0.75692,1.23862 2.5541,2.53671 5.85709,0.54114 2.42713,-1.60628 3.00766,-4.27983 2.80122,-7.67152 -0.75754,-0.0852 -1.4767,-0.1034 -2.16459,-0.0636 z m -132.00757,0.38199 c -5.43307,-0.15752 -8.89246,3.20463 -7.5442,7.19405 0.75693,1.23862 2.52227,2.56852 5.82527,0.57297 2.42713,-1.60629 3.03948,-4.27984 2.83305,-7.67152 -0.37877,-0.0425 -0.75191,-0.085 -1.11412,-0.0955 z m -336.56043,7.98984 c 0.65856,-0.002 1.32951,0.008 2.00541,0.0318 20.4804,-0.38281 33.29799,18.59858 32.53237,39.82192 -0.76562,21.22334 -12.04866,35.39766 -34.06031,35.20626 -17.99215,0 -31.99165,-12.22227 -31.80024,-27.53474 l 18.39895,0 c 0,5.74218 6.51067,12.22351 13.40129,12.22351 7.27342,-0.3828 13.78246,-6.113 14.16526,-20.27703 0.38283,-14.16403 -4.97697,-22.75992 -14.54725,-22.75992 -5.16796,-0.19139 -11.83011,1.91319 -12.25535,10.88657 l -19.54488,0.38203 c -0.74169,-15.39023 11.28941,-27.90921 31.70475,-27.98039 z m 72.73626,18.62177 13.78329,0 0,60.92658 -13.78329,0 0,-60.92658 z m 28.90352,0 15.9797,0 26.42061,46.25198 0,-46.25198 10.85474,0 0,60.92658 -16.48901,0 -26.16597,-45.39253 0,45.39253 -10.85474,0 0.25467,-60.92658 z m 69.45757,0 34.02848,0 0,11.26854 -21.99596,0 0,12.95566 20.49985,0 0,10.72741 -20.37253,0 0,15.6932 21.61398,0 0,10.28177 -33.77382,0 0,-60.92658 z m 95.01872,0 16.36168,0 0,60.92658 -11.96886,0 0,-47.17513 -15.12022,47.17513 -12.0007,0 -14.57909,-47.42979 0,47.42979 -11.26855,0 0,-59.97161 18.01695,0 14.73825,45.71083 15.82054,-46.6658 z m 45.67901,0 15.40671,0 21.74132,60.92658 -14.16528,0 -4.67931,-13.87878 -21.20015,0 -4.80665,13.87878 -14.03794,0 21.7413,-60.92658 z m 66.62452,0 12.63733,0 0,50.64481 25.33832,0 0,10.28177 -37.72099,0 -0.25466,-60.92658 z m 47.7481,0 13.08298,0 0,60.92658 -12.66916,0 -0.41382,-60.92658 z m 28.07589,0 25.46564,0.28648 c 6.55217,0.18084 18.48994,3.93633 18.55809,15.94787 -0.0403,6.47362 -2.62157,11.19872 -9.07213,13.33764 5.95123,1.58756 9.92132,4.95284 10.05894,13.2103 0.13762,10.32184 -6.75982,18.00665 -16.39352,18.14429 l -28.33054,0 -0.28648,-60.92658 z m 57.23404,0 23.14193,0 c 12.55314,0.19462 19.32185,11.0141 19.38571,19.13107 -0.13069,8.89549 -6.24696,13.61686 -12.2235,15.94787 l 18.71725,25.84764 -14.77008,0 -14.41993,-22.82359 -6.87572,0 0,22.82359 -12.95566,0 0,-60.92658 z m 56.02444,0 35.11077,0 0,11.14122 -22.31427,0 0,13.49679 21.07283,0 0,10.72741 -21.07283,0 0,14.73824 22.02779,0 0,10.82292 -35.2381,0 0.41381,-60.92658 z m -248.00364,10.31358 -7.41687,25.59299 15.12023,-0.41382 -7.70336,-25.17917 z m 147.82813,0.70031 0,13.46496 10.37726,0 c 4.12873,0 7.06609,-2.78843 7.51235,-6.30274 0.0571,-3.12506 -2.89132,-6.91295 -7.51235,-7.16222 l -10.37726,0 z m 57.10673,0.54114 0,16.10703 7.73519,-0.0954 c 5.33782,0.0686 8.51611,-4.55538 8.4355,-8.18084 0.0166,-4.01473 -3.60934,-7.92801 -9.54961,-7.8307 l -6.62108,0 z m -56.9794,23.26925 0,15.53404 12.09619,0 c 1.85688,0.0944 6.47316,-2.05982 6.74839,-7.28954 0.27525,-5.22972 -4.54641,-8.24449 -6.74839,-8.2445 l -12.09619,0 z"
       id="path3814"
       inkscape:connector-curvature="0" />
  </g>
  <g
     inkscape:groupmode="layer"
     id="layer2"
     inkscape:label="2"
     transform="translate(0,26)" />
</svg>
