<?xml version="1.0" encoding="UTF-8" standalone="no"?>
<!-- Created with Inkscape (http://www.inkscape.org/) -->

<svg
   xmlns:dc="http://purl.org/dc/elements/1.1/"
   xmlns:cc="http://creativecommons.org/ns#"
   xmlns:rdf="http://www.w3.org/1999/02/22-rdf-syntax-ns#"
   xmlns:svg="http://www.w3.org/2000/svg"
   xmlns="http://www.w3.org/2000/svg"
   xmlns:sodipodi="http://sodipodi.sourceforge.net/DTD/sodipodi-0.dtd"
   xmlns:inkscape="http://www.inkscape.org/namespaces/inkscape"
   width="650"
   height="380"
   id="svg2999"
   version="1.1"
   inkscape:version="0.48.4 r9939"
   sodipodi:docname="Nouveau document 2">
  <defs
     id="defs3001" />
  <sodipodi:namedview
     id="base"
     pagecolor="#ffffff"
     bordercolor="#666666"
     borderopacity="1.0"
     inkscape:pageopacity="0.0"
     inkscape:pageshadow="2"
     inkscape:zoom="0.98994949"
     inkscape:cx="276.57795"
     inkscape:cy="210.61637"
     inkscape:document-units="px"
     inkscape:current-layer="layer2"
     showgrid="false"
     showguides="true"
     inkscape:guide-bbox="true"
     inkscape:window-width="1232"
     inkscape:window-height="768"
     inkscape:window-x="92"
     inkscape:window-y="39"
     inkscape:window-maximized="0">
    <sodipodi:guide
       orientation="0,1"
       position="-47.47717,40.406102"
       id="guide3009" />
    <sodipodi:guide
       orientation="0,1"
       position="100.0051,420.22346"
       id="guide3011" />
    <sodipodi:guide
       orientation="1,0"
       position="78.791899,560.63466"
       id="guide3013" />
    <sodipodi:guide
       orientation="1,0"
       position="570.73619,553.56359"
       id="guide3017" />
    <sodipodi:guide
       orientation="0,1"
       position="-154.55334,459.61941"
       id="guide3019" />
    <sodipodi:guide
       orientation="0,1"
       position="-124.24876,378.8072"
       id="guide3021" />
    <sodipodi:guide
       orientation="0,1"
       position="-102.02541,20.203051"
       id="guide3023" />
    <sodipodi:guide
       orientation="0,1"
       position="-167.68532,98.994949"
       id="guide3025" />
    <inkscape:grid
       type="xygrid"
       id="grid3928"
       empspacing="5"
       visible="true"
       enabled="true"
       snapvisiblegridlinesonly="true" />
  </sodipodi:namedview>
  <metadata
     id="metadata3004">
    <rdf:RDF>
      <cc:Work
         rdf:about="">
        <dc:format>image/svg+xml</dc:format>
        <dc:type
           rdf:resource="http://purl.org/dc/dcmitype/StillImage" />
        <dc:title></dc:title>
      </cc:Work>
    </rdf:RDF>
  </metadata>
  <g
     inkscape:label="Calque 1"
     inkscape:groupmode="layer"
     id="layer1"
     transform="translate(0,-672.36218)" />
  <g
     inkscape:groupmode="layer"
     id="layer2"
     inkscape:label="test"
     transform="translate(0,-120)">
    <path
       style="opacity:0.4;fill:#000000;fill-opacity:1;stroke:#000000;stroke-width:1.0049901;stroke-linejoin:round;stroke-miterlimit:1;stroke-opacity:1;stroke-dasharray:none"
       d="m -1.4065815,118.90539 0,383.99117 653.5950615,0 0,-383.99117 -653.5950615,0 z m 42.0000845,23.59427 c 0.12627,0.12593 30.812562,0 30.812562,0 5.30331,-0.12594 5.18751,3.5674 5.18751,8.35305 l 0,30.48242 c 0.323521,5.0565 -0.389281,8.0401 -5.18751,8.16604 l -30.812562,0 c -6.060933,-0.25188 -6.065053,-2.49882 -5.812512,-8.16604 l 0,-30.48242 c 0.25253,-4.2819 -0.248421,-8.35305 5.812512,-8.35305 z m 547.188597,0.46752 c 0.12627,0.12594 26.7813,0 26.7813,0 5.30331,-0.12594 7.18752,3.53623 7.18752,8.32188 l 0,30.48242 c 0.32352,5.05649 -2.38929,8.04011 -7.18752,8.16605 l -26.7813,0 c -6.06092,-0.25188 -8.06506,-2.49883 -7.81252,-8.16605 l 0,-30.48242 c -0.12627,-4.2819 1.7516,-8.32188 7.81252,-8.32188 z m -77.56266,18.57619 c 30.34254,-0.37537 30.79479,4.14298 32.56257,44.69508 l 0,236.75299 c -0.47922,33.93884 -0.69259,35.0051 -47.46885,36.27969 l -335.37567,0 c -55.55852,0.71242 -53.56261,2.00553 -53.56261,-36.27969 l 0,-236.75299 c 0,-41.30773 3.05487,-44.32106 53.56261,-44.32106 l 335.37567,0 c 5.64513,-0.16282 10.57163,-0.32039 14.90628,-0.37402 z m 77.56266,55.97794 c 0.12627,0.12594 26.7813,0 26.7813,0 5.30331,-0.12594 7.18752,3.53623 7.18752,8.32188 l 0,30.48242 c 0.32352,5.05649 -2.38929,8.04011 -7.18752,8.16604 l -26.7813,0 c -6.06092,-0.25187 -8.06506,-2.49882 -7.81252,-8.16604 l 0,-30.48242 c -0.12627,-4.2819 1.7516,-8.32188 7.81252,-8.32188 z M 42.781007,218.02 c 0.12627,0.12594 26.812554,0 26.812554,0 5.303311,-0.12594 7.187515,3.53623 7.187515,8.32188 l 0,30.51359 c 0.32352,5.05649 -2.389285,8.00894 -7.187515,8.13487 l -26.812554,0 c -6.060932,-0.25187 -8.065056,-2.46765 -7.812516,-8.13487 l 0,-30.51359 c -0.12627,-4.2819 1.751584,-8.32188 7.812516,-8.32188 z m 543.469843,74.55413 c 0.12627,0.12593 26.81255,0 26.81255,0 5.30331,-0.12594 7.18751,3.53622 7.18751,8.32188 l 0,30.51359 c 0.32353,5.05649 -2.38928,8.00893 -7.18751,8.13487 l -26.81255,0 c -6.06093,-0.25188 -8.06506,-2.46765 -7.81252,-8.13487 l 0,-30.51359 c -0.12627,-4.2819 1.75159,-8.32188 7.81252,-8.32188 z m -544.001094,0.49869 c 0.12627,0.12593 26.812554,0 26.812554,0 5.303311,-0.12594 7.187514,3.53622 7.187514,8.32188 l 0,30.51359 c 0.323521,5.05649 -2.389284,8.00893 -7.187514,8.13487 l -26.812554,0 c -6.060932,-0.25188 -8.033806,-2.46765 -7.781266,-8.13487 l 0,-30.51359 c -0.12627,-4.2819 1.720334,-8.32188 7.781266,-8.32188 z m 545.001094,73.05805 c 0.12627,0.12594 26.81255,0 26.81255,0 5.30331,-0.12593 7.15627,3.5674 7.15627,8.35306 l 0,30.48241 c 0.32352,5.0565 -2.35804,8.00894 -7.15627,8.13488 l -26.81255,0 c -6.06092,-0.25188 -8.06506,-2.46765 -7.81252,-8.13488 l 0,-30.48241 c -0.12627,-4.2819 1.7516,-8.35306 7.81252,-8.35306 z m -543.969842,1.49607 c 0.12627,0.12594 26.812554,0 26.812554,0 5.303311,-0.12594 7.156265,3.53623 7.156265,8.32189 l 0,30.51358 c 0.32352,5.0565 -2.358035,8.00894 -7.156265,8.13488 l -26.812554,0 c -6.060932,-0.25188 -8.065056,-2.46765 -7.812516,-8.13488 l 0,-30.51358 c -0.12627,-4.2819 1.751584,-8.32189 7.812516,-8.32189 z M 588.75085,440.685 c 0.12627,0.12594 26.81256,0 26.81256,0 5.30331,-0.12594 7.18751,3.53623 7.18751,8.32189 l 0,30.48242 c 0.32352,5.05649 -2.38929,8.0401 -7.18751,8.16604 l -26.81256,0 c -6.06092,-0.25188 -8.06506,-2.49882 -7.81251,-8.16604 l 0,-30.48242 c -0.12627,-4.2819 1.75159,-8.32189 7.81251,-8.32189 z m -544.969841,0.99738 c 0.12627,0.12594 26.812554,0 26.812554,0 5.303311,-0.12594 7.187515,3.53623 7.187515,8.32189 l 0,30.51358 c 0.32352,5.0565 -2.389285,8.00894 -7.187515,8.13488 l -26.812554,0 c -6.060932,-0.25188 -8.065056,-2.46766 -7.812516,-8.13488 l 0,-30.51358 c -0.12627,-4.2819 1.751584,-8.32189 7.812516,-8.32189 z"
       id="rect3033"
       inkscape:connector-curvature="0" />
  </g>
</svg>
